<svg width="39" height="39" viewBox="0 0 39 39" fill="none" xmlns="http://www.w3.org/2000/svg">
<path fill-rule="evenodd" clip-rule="evenodd" d="M19.7064 0.376953C30.1537 0.376953 38.6231 8.84654 38.6231 19.2941C38.6231 29.7416 30.1537 38.2112 19.7064 38.2112C16.4334 38.2112 13.3539 37.3788 10.6668 35.9147L2.32588 37.3137C2.12029 37.348 1.9095 37.3331 1.71077 37.2703C1.51204 37.2075 1.33102 37.0985 1.18252 36.9522C1.03403 36.8059 0.922291 36.6266 0.856453 36.4288C0.790614 36.2311 0.77255 36.0205 0.803739 35.8144L2.2115 26.5054C1.26843 24.2184 0.785281 21.7679 0.789662 19.2941C0.789662 8.84654 9.25907 0.376953 19.7064 0.376953ZM12.5673 9.96749C11.2739 9.96749 10.2023 11.0585 10.4029 12.4065C10.783 14.9335 11.9057 19.5897 15.2456 22.9543C18.7368 26.472 23.7326 27.9766 26.4372 28.5696C27.8379 28.8776 29.0328 27.7689 29.0328 26.4016V23.1919C29.0328 23.0852 29.0006 22.9811 28.9402 22.8931C28.8799 22.8052 28.7944 22.7375 28.6949 22.6991L25.2459 21.3741C25.1528 21.3384 25.0515 21.3299 24.9538 21.3494L21.4749 22.0287C19.2313 20.8673 17.8728 19.5651 17.058 17.603L17.7126 14.0571C17.7302 13.9628 17.7217 13.8654 17.688 13.7755L16.3946 10.3106C16.3571 10.2102 16.2898 10.1235 16.2018 10.0622C16.1138 10.0009 16.0092 9.96786 15.9019 9.96749H12.5673Z" fill="#FFCD29"/>
<path d="M19.7068 0.876953C29.8778 0.877205 38.1228 9.12276 38.1229 19.2939C38.1229 29.4652 29.8778 37.7107 19.7068 37.7109C16.5196 37.7109 13.5217 36.9008 10.9061 35.4756L10.7547 35.3926L10.5838 35.4219L2.24298 36.8203C2.11545 36.8415 1.9844 36.8329 1.86115 36.7939C1.7378 36.7549 1.6252 36.6865 1.53302 36.5957C1.44095 36.5049 1.37172 36.3932 1.33087 36.2705C1.29011 36.1479 1.27841 36.0174 1.29767 35.8896L2.70587 26.5801L2.72638 26.4434L2.67365 26.3145C1.75572 24.0882 1.28559 21.703 1.28986 19.2949V19.2939C1.28992 9.12261 9.53573 0.876953 19.7068 0.876953ZM12.5672 9.46777C11.049 9.46783 9.74251 10.7176 9.88947 12.3232L9.90802 12.4805C10.293 15.0402 11.4369 19.8274 14.8904 23.3066C18.2612 26.703 22.9664 28.2599 25.7908 28.9346L26.3299 29.0576C28.0791 29.4422 29.533 28.0496 29.533 26.4014V23.1914C29.533 22.984 29.4697 22.7814 29.3524 22.6104C29.2349 22.4391 29.0685 22.3072 28.8748 22.2324H28.8738L25.4256 20.9072H25.4246C25.2888 20.8552 25.144 20.8328 24.9998 20.8408L24.8582 20.8584L21.5526 21.5039C19.5274 20.4295 18.3217 19.2523 17.577 17.542L18.2039 14.1484C18.2295 14.0105 18.2269 13.8693 18.1961 13.7334L18.1561 13.6006L16.8631 10.1357C16.79 9.94009 16.6585 9.77171 16.4871 9.65234C16.3159 9.53311 16.1128 9.46858 15.9041 9.46777H12.5672Z" stroke="#FFCD29" stroke-opacity="0.3"/>
</svg>
