<svg width="60" height="60" viewBox="0 0 60 60" fill="none" xmlns="http://www.w3.org/2000/svg">
<circle cx="30" cy="30" r="30" fill="url(#paint0_linear_296_9051)"/>
<path d="M14.5 43.625L12.7563 42.9312C12.6317 43.2447 12.594 43.5861 12.6471 43.9192C12.7003 44.2523 12.8423 44.5649 13.0583 44.8241C13.2742 45.0833 13.5561 45.2794 13.8742 45.3917C14.1923 45.5041 14.5348 45.5285 14.8656 45.4625L14.5 43.625ZM23.3238 41.87L24.2125 40.2181L23.6181 39.8994L22.9581 40.0306L23.3238 41.87ZM17.545 35.9694L19.2888 36.6631L19.5944 35.8869L19.2269 35.1388L17.545 35.9694ZM42.625 30.5C42.625 36.5863 37.2756 41.75 30.3813 41.75V45.5C39.0831 45.5 46.375 38.9113 46.375 30.5H42.625ZM18.1394 30.5C18.1394 24.4137 23.4906 19.25 30.3831 19.25V15.5C21.6813 15.5 14.3875 22.0887 14.3875 30.5H18.1394ZM30.3831 19.25C37.2756 19.25 42.625 24.4137 42.625 30.5H46.375C46.375 22.0887 39.085 15.5 30.3831 15.5V19.25ZM30.3813 41.75C28.1219 41.75 26.0181 41.1875 24.2125 40.2181L22.435 43.52C24.8787 44.8301 27.6085 45.5106 30.3813 45.5V41.75ZM14.8656 45.4625L23.6894 43.7075L22.9581 40.0306L14.1344 41.7856L14.8656 45.4644V45.4625ZM19.2269 35.1388C18.5131 33.6964 18.1422 32.1093 18.1394 30.5H14.3875C14.3875 32.75 14.9163 34.8837 15.8613 36.8L19.2269 35.1388ZM15.8031 35.2756L12.7563 42.9331L16.24 44.3169L19.285 36.6613L15.8013 35.2756H15.8031Z" fill="white"/>
<path d="M23.875 32.375C24.9105 32.375 25.75 31.5355 25.75 30.5C25.75 29.4645 24.9105 28.625 23.875 28.625C22.8395 28.625 22 29.4645 22 30.5C22 31.5355 22.8395 32.375 23.875 32.375Z" fill="white"/>
<path d="M30.4375 32.375C31.473 32.375 32.3125 31.5355 32.3125 30.5C32.3125 29.4645 31.473 28.625 30.4375 28.625C29.402 28.625 28.5625 29.4645 28.5625 30.5C28.5625 31.5355 29.402 32.375 30.4375 32.375Z" fill="white"/>
<path d="M37 32.375C38.0355 32.375 38.875 31.5355 38.875 30.5C38.875 29.4645 38.0355 28.625 37 28.625C35.9645 28.625 35.125 29.4645 35.125 30.5C35.125 31.5355 35.9645 32.375 37 32.375Z" fill="white"/>
<defs>
<linearGradient id="paint0_linear_296_9051" x1="0" y1="30" x2="60" y2="30" gradientUnits="userSpaceOnUse">
<stop stop-color="#03314B"/>
<stop offset="1" stop-color="#0083CD"/>
</linearGradient>
</defs>
</svg>
