<svg width="25" height="24" viewBox="0 0 25 24" fill="none" xmlns="http://www.w3.org/2000/svg">
<path d="M0.499969 3.46655C0.499969 2.70335 0.770247 2.07372 1.31078 1.57766C1.85131 1.08158 2.55403 0.833557 3.41889 0.833557C4.26832 0.833557 4.95556 1.07776 5.48066 1.56622C6.0212 2.06992 6.29147 2.72624 6.29147 3.53524C6.29147 4.26789 6.02893 4.87843 5.50383 5.36688C4.9633 5.87059 4.25286 6.12244 3.37256 6.12244H3.34939C2.49996 6.12244 1.81272 5.87059 1.28761 5.36688C0.76251 4.86318 0.499969 4.22973 0.499969 3.46655ZM0.801128 23.5002V8.20594H5.94398V23.5002H0.801128ZM8.79341 23.5002H13.9363V14.9601C13.9363 14.4259 13.998 14.0138 14.1216 13.7238C14.3378 13.2048 14.666 12.766 15.1061 12.4073C15.5463 12.0486 16.0984 11.8692 16.7625 11.8692C18.4923 11.8692 19.3571 13.0216 19.3571 15.3265V23.5002H24.5V14.7312C24.5 12.4721 23.9594 10.7588 22.8783 9.59112C21.7973 8.42344 20.3687 7.83961 18.5926 7.83961C16.6004 7.83961 15.0482 8.68674 13.9363 10.381V10.4268H13.9131L13.9363 10.381V8.20594H8.79341C8.82429 8.69437 8.83974 10.2131 8.83974 12.7622C8.83974 15.3112 8.82429 18.8905 8.79341 23.5002Z" fill="white"/>
</svg>
