<svg width="21" height="18" viewBox="0 0 21 18" fill="none" xmlns="http://www.w3.org/2000/svg">
<path fill-rule="evenodd" clip-rule="evenodd" d="M18.277 0.930026C18.5241 0.826017 18.7946 0.790145 19.0603 0.826143C19.326 0.862142 19.5772 0.968695 19.7877 1.13471C19.9982 1.30073 20.1604 1.52014 20.2574 1.77011C20.3543 2.02008 20.3825 2.29147 20.339 2.55603L18.071 16.313C17.851 17.64 16.395 18.401 15.178 17.74C14.16 17.187 12.648 16.335 11.288 15.446C10.608 15.001 8.52502 13.576 8.78102 12.562C9.00102 11.695 12.501 8.43703 14.501 6.50003C15.286 5.73903 14.928 5.30003 14.001 6.00003C11.699 7.73803 8.00302 10.381 6.78102 11.125C5.70302 11.781 5.14102 11.893 4.46902 11.781C3.24302 11.577 2.10602 11.261 1.17802 10.876C-0.0759802 10.356 -0.0149803 8.63203 1.17702 8.13003L18.277 0.930026Z" fill="white"/>
</svg>
