<svg width="20" height="20" viewBox="0 0 20 20" fill="none" xmlns="http://www.w3.org/2000/svg">
<path d="M18.5 8.5V17.5C18.5 17.966 18.5 18.199 18.424 18.383C18.3223 18.6275 18.1277 18.8217 17.883 18.923C17.699 19 17.466 19 17 19C16.534 19 16.301 19 16.117 18.924C15.8725 18.8223 15.6783 18.6277 15.577 18.383C15.5 18.199 15.5 17.966 15.5 17.5V8.5C15.5 8.034 15.5 7.801 15.576 7.617C15.6777 7.37246 15.8723 7.17826 16.117 7.077C16.301 7 16.534 7 17 7C17.466 7 17.699 7 17.883 7.076C18.1275 7.17771 18.3217 7.37227 18.423 7.617C18.5 7.801 18.5 8.034 18.5 8.5Z" stroke="#FFCD29" stroke-width="1.5" stroke-linejoin="round"/>
<path d="M14.5 1H17.5V4" stroke="#FFCD29" stroke-width="1.5" stroke-linecap="round" stroke-linejoin="round"/>
<path d="M17 1.5C17 1.5 13 6.5 2.5 10" stroke="#FFCD29" stroke-width="1.5" stroke-linecap="round" stroke-linejoin="round"/>
<path d="M11.5 12V17.5C11.5 17.966 11.5 18.199 11.424 18.383C11.3223 18.6275 11.1277 18.8217 10.883 18.923C10.699 19 10.466 19 10 19C9.534 19 9.301 19 9.117 18.924C8.87246 18.8223 8.67826 18.6277 8.577 18.383C8.5 18.199 8.5 17.966 8.5 17.5V12C8.5 11.534 8.5 11.301 8.576 11.117C8.67771 10.8725 8.87227 10.6783 9.117 10.577C9.301 10.5 9.534 10.5 10 10.5C10.466 10.5 10.699 10.5 10.883 10.576C11.1275 10.6777 11.3217 10.8723 11.423 11.117C11.5 11.301 11.5 11.534 11.5 12ZM4.5 14.5V17.5C4.5 17.966 4.5 18.199 4.424 18.383C4.32229 18.6275 4.12773 18.8217 3.883 18.923C3.699 19 3.466 19 3 19C2.534 19 2.301 19 2.117 18.924C1.87246 18.8223 1.67826 18.6277 1.577 18.383C1.5 18.199 1.5 17.966 1.5 17.5V14.5C1.5 14.034 1.5 13.801 1.576 13.617C1.67771 13.3725 1.87227 13.1783 2.117 13.077C2.301 13 2.534 13 3 13C3.466 13 3.699 13 3.883 13.076C4.12754 13.1777 4.32174 13.3723 4.423 13.617C4.5 13.801 4.5 14.034 4.5 14.5Z" stroke="#FFCD29" stroke-width="1.5" stroke-linejoin="round"/>
</svg>
