<svg width="25" height="13" viewBox="0 0 25 13" fill="none" xmlns="http://www.w3.org/2000/svg">
<path d="M16.365 2.77903C16.365 3.42934 16.1067 4.05301 15.6468 4.51285C15.187 4.97269 14.5633 5.23103 13.913 5.23103C13.2627 5.23103 12.639 4.97269 12.1792 4.51285C11.7193 4.05301 11.461 3.42934 11.461 2.77903C11.461 2.12872 11.7193 1.50504 12.1792 1.0452C12.639 0.585361 13.2627 0.327026 13.913 0.327026C14.5633 0.327026 15.187 0.585361 15.6468 1.0452C16.1067 1.50504 16.365 2.12872 16.365 2.77903ZM10.25 0.500026H0.5V5.40403H5.346V12.673H10.25V0.500026ZM18.846 0.500026H24.5L19.394 12.673H13.74L18.846 0.500026Z" fill="white"/>
</svg>
