<svg width="31" height="21" viewBox="0 0 31 21" fill="none" xmlns="http://www.w3.org/2000/svg">
<path d="M30.1666 7.44665C30.2326 5.53818 29.8152 3.644 28.9533 1.93998C28.3685 1.24078 27.5569 0.768925 26.66 0.606645C22.95 0.270012 19.2247 0.132038 15.5 0.193312C11.7888 0.129257 8.07693 0.262779 4.37998 0.593312C3.64908 0.726268 2.97268 1.0691 2.43332 1.57998C1.23332 2.68665 1.09998 4.57998 0.966652 6.17998C0.773201 9.05673 0.773201 11.9432 0.966652 14.82C1.00523 15.7205 1.13931 16.6144 1.36665 17.4866C1.52742 18.1601 1.85268 18.7831 2.31332 19.3C2.85634 19.8379 3.5485 20.2003 4.29998 20.34C7.17454 20.6948 10.0709 20.8418 12.9667 20.78C17.6333 20.8466 21.7266 20.78 26.5666 20.4066C27.3366 20.2755 28.0482 19.9127 28.6066 19.3666C28.9799 18.9932 29.2588 18.5361 29.42 18.0333C29.8968 16.5701 30.131 15.0388 30.1133 13.5C30.1666 12.7533 30.1666 8.24665 30.1666 7.44665ZM12.4867 14.3V6.04665L20.38 10.1933C18.1667 11.42 15.2467 12.8066 12.4867 14.3Z" fill="white"/>
</svg>
