<svg width="36" height="32" viewBox="0 0 36 32" fill="none" xmlns="http://www.w3.org/2000/svg">
<path fill-rule="evenodd" clip-rule="evenodd" d="M31.5617 0.828286C31.992 0.646558 32.463 0.583881 32.9257 0.646778C33.3884 0.709676 33.8258 0.895849 34.1924 1.18592C34.559 1.47599 34.8414 1.85935 35.0103 2.29611C35.1791 2.73286 35.2282 3.20704 35.1524 3.66929L31.2029 27.706C30.8198 30.0246 28.2844 31.3543 26.1651 30.1993C24.3923 29.2331 21.7593 27.7445 19.391 26.1912C18.2069 25.4136 14.5795 22.9238 15.0253 21.1521C15.4084 19.6373 21.5033 13.9448 24.9861 10.5604C26.3531 9.23075 25.7297 8.46371 24.1154 9.68677C20.1067 12.7235 13.6705 17.3414 11.5425 18.6414C9.66531 19.7875 8.68665 19.9832 7.51643 19.7875C5.38147 19.4311 3.4015 18.879 1.78548 18.2063C-0.398233 17.2977 -0.292007 14.2855 1.78374 13.4084L31.5617 0.828286Z" fill="#0C263A"/>
</svg>
