<svg width="39" height="39" viewBox="0 0 39 39" fill="none" xmlns="http://www.w3.org/2000/svg">
<path fill-rule="evenodd" clip-rule="evenodd" d="M27.1434 4.72554C22.1837 3.61688 17.0404 3.61688 12.0806 4.72554L11.5462 4.84378C10.1507 5.15486 8.86897 5.84713 7.84362 6.84354C6.81827 7.83994 6.08958 9.10137 5.73868 10.4874C4.48367 15.4416 4.48367 20.6306 5.73868 25.5848C6.07336 26.9066 6.75197 28.1163 7.70555 29.0909C8.65913 30.0655 9.8537 30.7704 11.1679 31.1338L11.9009 35.51C11.9243 35.649 11.9846 35.7791 12.0753 35.8869C12.1661 35.9947 12.2841 36.0761 12.4171 36.1228C12.5501 36.1695 12.6931 36.1797 12.8313 36.1523C12.9696 36.1249 13.0979 36.061 13.2031 35.9672L17.5083 32.1159C20.7401 32.311 23.9833 32.0526 27.1434 31.3482L27.6794 31.23C29.0749 30.9189 30.3566 30.2266 31.382 29.2302C32.4073 28.2338 33.136 26.9724 33.4869 25.5864C34.7419 20.6322 34.7419 15.4432 33.4869 10.489C33.1359 9.10274 32.407 7.84118 31.3813 6.84476C30.3557 5.84833 29.0736 5.15617 27.6778 4.84535L27.1434 4.72554ZM13.4111 10.3597C13.1182 10.3168 12.8193 10.3758 12.5646 10.5268H12.5425C11.9514 10.8736 11.4185 11.3103 10.9645 11.8242C10.5862 12.2609 10.3813 12.7023 10.3277 13.1279C10.2961 13.3801 10.3182 13.6355 10.3923 13.8767L10.4207 13.8925C10.8463 15.1426 11.4012 16.3454 12.0791 17.4773C12.9535 19.0668 14.0291 20.5371 15.2792 21.8518L15.317 21.9054L15.377 21.9496L15.4132 21.9921L15.4573 22.03C16.7768 23.2838 18.2505 24.3644 19.843 25.2459C21.6637 26.2375 22.7688 26.7057 23.4325 26.9011V26.9106C23.6264 26.9705 23.8029 26.9973 23.9811 26.9973C24.5466 26.9567 25.082 26.7268 25.5008 26.3446C26.0131 25.8906 26.4466 25.3562 26.784 24.7619V24.7509C27.1008 24.1518 26.9936 23.5875 26.5365 23.2044C25.619 22.4011 24.6259 21.6884 23.5712 21.0762C22.865 20.6932 22.1477 20.9249 21.8576 21.3127L21.2381 22.0946C20.9197 22.4824 20.3427 22.4288 20.3427 22.4288L20.3269 22.4383C16.0217 21.3395 14.8725 16.9807 14.8725 16.9807C14.8725 16.9807 14.8189 16.3879 15.2177 16.0853L15.9933 15.461C16.3654 15.1583 16.6239 14.4426 16.2251 13.7364C15.6143 12.6824 14.9032 11.6899 14.1016 10.7727C13.9263 10.5573 13.6807 10.4106 13.408 10.3581M20.6848 8.46483C20.4757 8.46483 20.2752 8.54787 20.1274 8.69569C19.9796 8.84351 19.8966 9.04399 19.8966 9.25304C19.8966 9.46209 19.9796 9.66257 20.1274 9.81039C20.2752 9.95821 20.4757 10.0413 20.6848 10.0413C22.679 10.0413 24.3342 10.6923 25.6442 11.9408C26.3174 12.6234 26.8423 13.4321 27.186 14.3181C27.5312 15.2056 27.6888 16.1531 27.6479 17.1021C27.6435 17.2056 27.6596 17.3089 27.6952 17.4062C27.7308 17.5035 27.7852 17.5928 27.8553 17.6691C27.9969 17.8231 28.1939 17.9146 28.403 17.9234C28.612 17.9322 28.816 17.8575 28.97 17.7159C29.124 17.5743 29.2155 17.3773 29.2243 17.1683C29.2713 16.001 29.0776 14.8366 28.6552 13.7474C28.2308 12.6527 27.5846 11.6577 26.7572 10.8247L26.7414 10.809C25.1161 9.25619 23.0589 8.46483 20.6848 8.46483ZM20.6312 11.0565C20.4221 11.0565 20.2216 11.1395 20.0738 11.2873C19.926 11.4352 19.843 11.6356 19.843 11.8447C19.843 12.0537 19.926 12.2542 20.0738 12.402C20.2216 12.5499 20.4221 12.6329 20.6312 12.6329H20.658C22.0957 12.7354 23.1424 13.2146 23.8755 14.0012C24.6274 14.8115 25.0168 15.8189 24.9868 17.0642C24.982 17.2733 25.0605 17.4757 25.2049 17.6269C25.3493 17.7781 25.5479 17.8658 25.7569 17.8706C25.966 17.8754 26.1684 17.7969 26.3196 17.6525C26.4708 17.5081 26.5585 17.3095 26.5633 17.1005C26.6011 15.4657 26.0746 14.0548 25.031 12.9293V12.9261C23.9637 11.7816 22.4992 11.1763 20.7368 11.058L20.71 11.0549L20.6312 11.0565ZM20.6012 13.697C20.4957 13.6877 20.3895 13.6997 20.2887 13.7324C20.188 13.7651 20.0949 13.8177 20.015 13.8872C19.935 13.9566 19.8699 14.0415 19.8235 14.1366C19.7771 14.2318 19.7503 14.3354 19.7448 14.4411C19.7393 14.5469 19.7551 14.6527 19.7914 14.7521C19.8277 14.8516 19.8836 14.9428 19.9559 15.0202C20.0282 15.0976 20.1153 15.1596 20.2121 15.2026C20.3089 15.2455 20.4134 15.2686 20.5193 15.2703C21.1782 15.3049 21.5991 15.5036 21.8639 15.77C22.1304 16.038 22.329 16.4683 22.3652 17.1415C22.3672 17.2473 22.3905 17.3516 22.4336 17.4482C22.4767 17.5448 22.5389 17.6317 22.6163 17.7038C22.6937 17.7759 22.7849 17.8316 22.8843 17.8677C22.9838 17.9038 23.0895 17.9195 23.1951 17.9139C23.3008 17.9083 23.4042 17.8815 23.4993 17.8351C23.5943 17.7886 23.6791 17.7235 23.7484 17.6437C23.8178 17.5638 23.8704 17.4707 23.903 17.3701C23.9357 17.2695 23.9478 17.1633 23.9385 17.0579C23.8881 16.1121 23.5917 15.2766 22.9848 14.6618C22.3747 14.047 21.5439 13.7474 20.6012 13.697Z" fill="#FFCD29"/>
</svg>
