<svg width="38" height="39" viewBox="0 0 38 39" fill="none" xmlns="http://www.w3.org/2000/svg">
<path fill-rule="evenodd" clip-rule="evenodd" d="M19.0005 0.582764C29.4478 0.582764 37.9172 9.05235 37.9172 19.4999C37.9172 29.9474 29.4478 38.417 19.0005 38.417C15.7275 38.417 12.648 37.5846 9.96096 36.1205L1.62 37.5195C1.41442 37.5538 1.20363 37.539 1.0049 37.4761C0.806168 37.4133 0.625145 37.3043 0.476652 37.158C0.328159 37.0117 0.216419 36.8324 0.150581 36.6346C0.0847429 36.4369 0.0666787 36.2263 0.0978676 36.0202L1.50562 26.7113C0.562558 24.4242 0.0794093 21.9737 0.08379 19.4999C0.08379 9.05235 8.5532 0.582764 19.0005 0.582764ZM11.8614 10.1733C10.5681 10.1733 9.4964 11.2643 9.697 12.6123C10.0771 15.1393 11.1998 19.7955 14.5397 23.1601C18.0309 26.6778 23.0267 28.1824 25.7313 28.7754C27.1321 29.0834 28.3269 27.9747 28.3269 26.6074V23.3977C28.3269 23.291 28.2947 23.1869 28.2344 23.0989C28.1741 23.011 28.0885 22.9433 27.989 22.905L24.54 21.5799C24.4469 21.5443 24.3457 21.5357 24.2479 21.5552L20.769 22.2345C18.5254 21.0731 17.1669 19.7709 16.3522 17.8088L17.0068 14.2629C17.0243 14.1686 17.0158 14.0712 16.9821 13.9814L15.6888 10.5164C15.6512 10.416 15.584 10.3293 15.4959 10.268C15.4079 10.2067 15.3033 10.1737 15.1961 10.1733H11.8614Z" fill="#FFCD29"/>
</svg>
